# xmcd
#
# Track frame offsets:
# 150
# 16595
# 34577
# 51627
# 69632
# 86955
# 100477
# 117082
# 134607
# 155142
# 173297
# 188247
# 201125
# 216470
# 235212
#
# Disc length: 3384 seconds
#
#
# Revision: 0
# Processed by: cddbd v1.5.1PL2 Copyright (c) Steve Scherf et al.
# Submitted via: FreeRIP 2.945 
#
DISCID=d90d360f
DTITLE=Mara - 
DYEAR=1900
DGENRE=
TTITLE0=Deixe o coração te guiar
TTITLE1=Razão pra viver
TTITLE2=Virgem das virgens
TTITLE3=Bateu, valeu!
TTITLE4=Quando penso em você
TTITLE5=Aqui tem
TTITLE6=Vem viver
TTITLE7=Fica comigo
TTITLE8=Meu coração
TTITLE9=Vem
TTITLE10=Amazônia
TTITLE11=Morena
TTITLE12=Clima de festa
TTITLE13=Nação universo
TTITLE14=Deixa
EXTD=
EXTT0=
EXTT1=
EXTT2=
EXTT3=
EXTT4=
EXTT5=
EXTT6=
EXTT7=
EXTT8=
EXTT9=
EXTT10=
EXTT11=
EXTT12=
EXTT13=
EXTT14=
PLAYORDER=
